<svg xmlns="http://www.w3.org/2000/svg" width="1043.98" height="285.34" viewBox="0 0 1043.98 285.34"><defs><style>.a{fill:#fff;}</style></defs><title>partner</title><path class="a" d="M520.59,209.16V19.94c0-9.31-8.3-16.79-17-16.79h-50c9,4.65,15.74,14,15.74,24.77V218.49c0,44,25.33,62.22,63.11,62.22h19.74V231.38h-9.33C523.71,231.38,520.59,222.5,520.59,209.16Z"/><path class="a" d="M598.68,0c-16.15,0-28.26,14.47-28.26,28.61,0,13.45,12.12,27.92,28.26,27.92,15.49,0,28.28-13.8,28.28-28.6C627,12.45,613.16,0,598.68,0Z"/><path class="a" d="M598.68,0c-16.15,0-28.26,14.47-28.26,28.61,0,13.45,12.12,27.92,28.26,27.92,15.49,0,28.28-13.8,28.28-28.6C627,12.45,613.16,0,598.68,0Z"/><path class="a" d="M938.58,74.36A105.4,105.4,0,1,0,1034.72,223s1.15-2.67,1.69-4l.08-.18H983.07l.25,0-.15.16h0a59.23,59.23,0,0,1-98.87-62.71l.09-.2c.33-.76.68-1.52,1-2.27s.65-1.29,1-1.92l.21-.38c.41-.75.83-1.48,1.28-2.21v0a59.13,59.13,0,0,1,101.25-.11l.15.25c.38.63.74,1.26,1.1,1.9.12.21.25.43.36.65.23.43.44.87.67,1.3a59.86,59.86,0,0,1,3.06,7.24H973s0,0,0,0H904.11a34.35,34.35,0,0,0,34.41,34.33l.05,0h104.31a107.09,107.09,0,0,0,1.09-15.09A105.39,105.39,0,0,0,938.58,74.36Z"/><path class="a" d="M655.38,97.48v42c4.62-9,13.88-15.94,25.08-15.94.8,0,3.93,0,4.69,0h72l-92.3,104.86h0c-14.88,16.9-14.88,22.73-14.88,52.28H808.79c9.31,0,17-8.3,17-17.21V222c-4.74,9.14-14.24,15.89-25.08,15.89l-81.6,0,92.19-104.87h-.05C821.94,121,825,114.53,825.81,101V80.79H671.89C663,81.06,655.65,88.91,655.38,97.48Z"/><path class="a" d="M611.09,80.79h-51.6c9,4.65,15.73,14,15.73,24.78V280.71h51.29V96.8C626,88.5,619,81.68,611.09,80.79Z"/><path class="a" d="M345.4,74.36A105.4,105.4,0,1,0,441.54,223s1.16-2.67,1.7-4c0,0,.05-.12.07-.18H389.89l.24,0-.15.16h0a59.23,59.23,0,0,1-98.87-62.71l.09-.2c.33-.76.68-1.52,1-2.27s.65-1.29,1-1.92l.21-.38c.41-.75.83-1.48,1.28-2.21v0A59.13,59.13,0,0,1,396,149.11a2.49,2.49,0,0,1,.15.25c.38.63.75,1.26,1.09,1.9.13.21.25.43.36.65.23.43.45.87.67,1.3a58.87,58.87,0,0,1,3.06,7.24H310.92a34.35,34.35,0,0,0,34.42,34.33l0,0H449.71a107.89,107.89,0,0,0,1.08-15.09A105.39,105.39,0,0,0,345.4,74.36Z"/><path class="a" d="M121.13,74.53A104.81,104.81,0,0,0,67,89.48V19.94c0-9.31-8.31-16.79-17-16.79H0c9,4.65,15.74,14,15.74,24.77v152A105.4,105.4,0,1,0,121.13,74.53Zm0,164.58a59.17,59.17,0,1,1,59.17-59.18A59.17,59.17,0,0,1,121.13,239.11Z"/></svg>